<svg width="287" height="67" viewBox="0 0 287 67" fill="none" xmlns="http://www.w3.org/2000/svg">
<g clip-path="url(#clip0_668_479)">
<path fill-rule="evenodd" clip-rule="evenodd" d="M35.8266 29.1769L35.8648 29.2041L35.9029 29.0133L35.5649 26.3747C34.8344 21.3266 33.0518 15.7878 30.5113 11.3829C30.3151 11.0449 30.1461 10.745 29.9389 10.4071C29.2738 9.30038 27.9164 7.34326 27.055 6.42194C26.8969 6.25294 26.8588 6.16026 26.6843 5.98581C26.0955 5.40249 25.4359 4.5684 24.7763 4.05595C24.5964 3.91421 24.5255 3.80518 24.3619 3.66889C24.013 3.3745 21.26 1.09574 20.7693 1.21022C20.017 1.37922 16.4844 3.26002 15.6776 3.79973C14.331 4.70469 13.8513 4.98817 12.5374 6.04578C12.3684 6.18207 12.2649 6.2802 12.0959 6.41104C11.916 6.55278 11.856 6.6291 11.6979 6.75449L9.69172 8.64619C9.55543 8.78248 9.45185 8.87515 9.32101 9.0169L7.23305 11.5083C6.31719 12.7076 5.8429 13.4327 5.04151 14.7574L4.22378 16.2293C3.16617 18.3391 2.49017 19.9855 1.82508 22.3079C1.13818 24.6957 0.609375 27.7867 0.609375 30.3108V30.3326C0.609375 32.0444 0.62573 33.1238 0.805632 34.7593C0.849245 35.1409 0.980083 35.746 0.980083 36.1331L8.30701 32.8785C8.97211 32.6386 9.53907 32.426 10.226 32.197C13.6714 31.0468 17.2803 30.1472 20.8947 29.6184C21.6416 29.5094 22.4157 29.4167 23.2444 29.3077C23.6042 29.2641 23.9967 29.2368 24.4274 29.1932C24.7817 29.1551 25.2778 29.0787 25.6758 29.0787C26.5044 29.0787 27.2785 28.9533 28.2108 28.9533C28.5924 28.9533 29.143 28.9861 29.5028 28.9424C30.5495 28.8225 30.0316 28.9533 30.7457 28.9533C31.1819 28.9533 31.6125 28.9533 32.0487 28.9533L34.5673 29.0951C34.8072 29.1278 35.554 29.215 35.8212 29.1823L35.8266 29.1769Z" fill="#0C1621"/>
<path fill-rule="evenodd" clip-rule="evenodd" d="M36.0119 29.264L35.952 29.2313L35.8648 29.204L35.8266 29.1768C35.2324 30.6705 34.66 31.5755 34.033 32.8457L32.6211 35.3316C32.4194 35.6696 32.234 35.9531 32.0323 36.2911C30.7675 38.4281 28.5487 41.3392 26.9351 43.2582L22.1649 48.3282C21.8814 48.6117 21.6361 48.7916 21.3581 49.0696L19.2865 50.8959C17.8036 52.2152 15.116 54.1287 13.4369 55.2571C13.257 55.3771 13.1207 55.448 12.9408 55.5679C12.7664 55.6824 12.6464 55.8078 12.4338 55.8677C12.5429 56.0258 12.6519 56.113 12.8154 56.233C13.9439 57.0562 14.6581 57.634 15.961 58.4082C17.9236 59.5748 20.0006 60.6052 22.1922 61.3357C24.2529 62.0226 24.7926 62.1589 27.0495 62.6059C29.9552 63.1838 32.7028 63.1456 35.6467 62.982C38.8086 62.8076 42.6193 61.6573 45.4214 60.5016C46.479 60.0654 47.0351 59.7384 47.9673 59.275C49.2539 58.6371 51.0365 57.416 52.1868 56.5601C52.6556 56.2112 52.7047 56.3093 52.6774 55.497L52.3722 52.7658C52.225 51.8826 52.0669 51.0322 51.827 50.2144C50.4205 45.3789 48.5124 42.1243 45.4923 38.1719L43.3716 35.7132C43.2026 35.5497 43.1699 35.4951 43.0227 35.3152C42.532 34.6992 40.6458 32.9983 39.9044 32.306C39.7463 32.1588 39.6373 32.0934 39.4683 31.9353C39.3265 31.8044 39.212 31.7281 39.0648 31.5973C38.9231 31.4773 38.8086 31.3846 38.6614 31.2593C37.8873 30.6051 36.508 29.6838 36.0174 29.2585L36.0119 29.264Z" fill="#0C1621"/>
<path fill-rule="evenodd" clip-rule="evenodd" d="M35.9029 29.0134L35.8647 29.2042L35.952 29.2314C36.0337 29.1933 36.0119 29.1769 36.0119 29.2641C38.0072 29.2641 42.2377 30.12 44.113 30.5071C48.5397 31.423 53.9313 33.4564 57.9219 35.4517C59.5791 36.2803 60.8657 37.0054 62.4685 37.9594C62.9755 38.2647 63.428 38.5863 63.9295 38.8535C63.935 38.5318 64.8127 35.3863 64.8563 31.9245C64.8563 31.5647 64.9217 31.4175 64.9217 30.9977C64.9217 30.5943 64.8781 30.3872 64.8563 30.071C64.7691 28.4246 64.8181 28.1738 64.5673 26.4021C63.706 20.4271 61.4981 15.6243 58.1127 11.203C57.8237 10.8269 57.5239 10.5052 57.2186 10.1182L55.8067 8.55901C55.6267 8.37911 55.4905 8.24282 55.3106 8.06292L52.105 5.32622C51.7398 5.04819 51.3582 4.80832 50.982 4.53029C50.5949 4.24136 50.2133 4.00149 49.7881 3.74526C47.9182 2.60043 46.5826 1.92443 44.5164 1.09579C44.0203 0.894081 42.0032 0.141763 41.518 0.130859C41.518 0.877727 41.578 1.40653 41.578 2.16975L41.518 6.43834C41.4799 7.6595 41.0928 11.2575 40.9129 12.3315C40.6949 13.6344 40.4986 14.752 40.2478 16.0004L38.3943 22.8095C38.029 23.9107 37.642 24.9247 37.2222 25.9714C37.0041 26.5111 36.1973 28.5282 35.892 29.0188L35.9029 29.0134Z" fill="#0C1621"/>
<path fill-rule="evenodd" clip-rule="evenodd" d="M111.211 16.2076C111.097 16.0386 110.906 15.7769 110.759 15.6079C110.65 15.4825 110.601 15.4552 110.492 15.3135C108.894 13.2637 105.383 11.8517 102.876 11.3557C99.5338 10.6906 96.0775 10.8432 92.8611 11.9172C90.2498 12.784 88.2981 14.1142 86.7226 16.2948C85.0544 18.6063 84.2803 21.283 84.2803 24.434V39.2841H92.5122V23.7526C92.5122 21.5828 93.6188 19.4567 95.5051 18.5136C97.6421 17.4451 100.809 17.3742 103.045 18.1756C104.571 18.7262 105.394 19.5003 106.092 20.945C106.806 22.4333 106.877 24.2759 106.877 26.0368V39.3986H109.974C110.393 39.3986 110.541 39.3332 110.96 39.3332H114.122C114.542 39.3332 114.689 39.2732 115.109 39.2732V25.1046C115.109 23.1965 115.769 20.9177 116.924 19.5548C119.11 16.9762 125.353 16.9108 127.691 19.2714C128.024 19.6094 128.204 19.8165 128.465 20.2254C129.218 21.4084 129.528 22.7876 129.528 24.3577V39.2678H137.7V23.7362C137.7 20.3344 136.719 17.7613 134.882 15.2972L134.097 14.414C131.829 12.1516 128.04 10.8705 124.644 10.8705C122.643 10.8705 121.536 10.9032 119.617 11.3557L117.082 12.1025C115.894 12.5277 114.482 13.291 113.49 14.0215C113.048 14.3431 112.661 14.6484 112.28 15.0355L111.211 16.1967V16.2076ZM222.62 24.2487V39.2841H230.852V23.8779C230.852 21.561 231.855 19.1787 234.068 18.1865C234.799 17.8594 235.6 17.7558 236.668 17.7558C240.305 17.7558 244.246 17.7068 247.871 17.7558C248.155 17.7558 248.488 17.8376 248.488 17.5705V11.3229C248.488 11.1812 248.444 11.1376 248.302 11.1376H236.172C233.774 11.1376 232.138 11.2902 230.328 11.9172C229.903 12.0644 229.538 12.2225 229.156 12.4133C228.775 12.6041 228.431 12.784 228.088 13.0129C224.277 15.5697 222.614 19.5276 222.614 24.2487H222.62ZM272.567 32.6605H265.884C264.335 32.6605 262.52 31.6628 261.637 30.5289C260.159 28.6372 260.127 27.476 260.127 24.7393C260.127 23.7362 260.198 22.6622 260.443 21.899C260.917 20.4271 261.997 19.1296 263.365 18.4482C264.035 18.1156 264.908 17.7504 265.884 17.7504H272.753C275.206 17.7504 277.539 19.7238 278.16 22.1771C278.466 23.3819 278.384 27.0562 278.062 28.2556C277.839 29.0788 277.419 29.7875 276.934 30.4089C276.127 31.4447 274.377 32.6605 272.567 32.6605ZM286.491 22.9403V27.5251C286.491 30.5289 285.111 33.5927 283.072 35.6152C281.033 37.6378 278.155 39.2787 275.228 39.2787H263.158C260.83 39.2787 258.071 38.0466 256.37 36.602C255.771 36.095 255.024 35.3917 254.539 34.7866C253.874 33.9579 253.296 33.1565 252.876 32.1153C251.606 28.9316 251.895 26.5928 251.895 23.1365C251.895 21.054 252.407 19.3967 253.11 17.9793C253.541 17.1234 254.43 15.8587 255.128 15.1718C257.161 13.1601 259.489 11.7754 262.395 11.3011C264.101 11.0231 271.351 11.1321 273.369 11.1321C276.345 11.1321 278.586 11.5737 280.794 13.0511L282.157 14.0433C283.378 14.9864 284.582 16.4747 285.269 17.8594C285.64 18.6008 285.896 19.2332 286.114 20.1055C286.338 20.9941 286.441 21.9535 286.485 22.9457L286.491 22.9403ZM184.862 39.2787H193.094V25.9768H198.791C200.623 25.9768 201.926 26.3584 202.94 27.7704C203.147 28.0593 203.332 28.3373 203.534 28.6644C203.643 28.8443 203.719 28.9643 203.806 29.1333L204.858 31.0522C204.951 31.2267 205.011 31.3575 205.115 31.5374L209.312 39.2841H218.596C218.504 39.1042 218.433 38.9407 218.329 38.7499C218.209 38.5318 218.139 38.4282 218.019 38.1938L213.603 29.9837C213.488 29.7493 213.412 29.6457 213.292 29.4277L212.714 28.3319C212.005 26.8981 211.15 25.3226 209.972 24.3304C209.52 23.9488 208.369 23.3219 207.579 23.3219V23.1965C208.075 23.1856 209.132 22.6077 209.487 22.3788C209.983 22.0626 210.594 21.5174 210.964 21.0758C211.471 20.4762 212.185 19.3531 212.665 18.6335L216.007 13.6835C216.209 13.3782 216.383 13.1547 216.59 12.8439C216.803 12.5277 217.604 11.4047 217.67 11.1376H208.446C207.884 11.9771 204.951 16.4965 204.313 17.2161C204.133 17.4178 204.03 17.505 203.839 17.734L203.294 18.241C202.667 18.8298 201.473 19.3695 200.274 19.3695H193.094V0H184.862V39.2841V39.2787ZM166.294 32.6605H152.801C151.64 32.6605 150.653 31.5102 150.582 30.1745C150.517 28.9534 151.526 27.7104 152.801 27.7104L169.45 27.7704C169.45 29.0842 169.608 30.0001 169.123 30.9705C168.627 31.9572 167.488 32.6605 166.294 32.6605ZM146.984 11.3175V17.6304C146.984 17.9357 147.813 17.8158 148.407 17.8158C150.98 17.8158 165.422 17.7286 166.485 17.8758C168.611 18.1701 169.39 19.4076 169.39 21.5937V21.8391C167.978 21.8391 166.654 21.899 165.182 21.899H152.185C150.615 21.899 149.568 22.019 148.429 22.4714C147.606 22.7985 146.734 23.3164 146.074 23.8889C145.469 24.4177 145.289 24.543 144.722 25.2627C143.73 26.5274 143.087 28.4355 143.087 30.1255C143.087 32.3824 143.326 33.7235 144.498 35.5825C145.681 37.4578 148.189 39.2841 150.702 39.2841H167.848C169.925 39.2841 171.996 38.5591 173.517 37.4633C174.122 37.0272 174.957 36.2258 175.425 35.5989C176.87 33.6744 177.688 31.7337 177.688 29.0733V20.8469C177.688 17.7994 176.396 14.9482 174.161 13.2365C171.669 11.3284 168.366 11.1321 165.122 11.1321H147.175C147.033 11.1321 146.99 11.1758 146.99 11.3175H146.984Z" fill="#0C1621"/>
<path fill-rule="evenodd" clip-rule="evenodd" d="M155.282 52.1551C155.282 50.4324 153.226 49.691 152.136 50.8685C151.825 51.2065 151.629 51.6481 151.629 52.2805V61.3737C151.629 63.6798 154.966 63.9305 155.265 61.6081C155.462 60.1144 155.058 56.222 155.38 55.0444C155.734 53.7524 156.508 53.5234 157.631 53.5234C159.921 53.5234 159.49 56.6363 159.49 58.2227C159.49 59.2803 159.441 60.4579 159.49 61.5046C159.512 62.0334 159.73 62.3823 159.986 62.6821C160.586 63.3854 161.818 63.4508 162.543 62.7584C162.881 62.4368 163.012 62.2187 163.105 61.6463C163.475 59.4057 162.505 55.3007 163.781 54.0304C164.484 53.3272 166.785 53.0383 167.248 55.0553C167.477 56.0421 167.324 60.1199 167.357 61.5046C167.368 61.9898 167.591 62.4313 167.837 62.693C168.856 63.7997 170.95 63.1073 170.95 61.6245V54.4502C170.95 53.2945 170.573 52.3677 170.066 51.6808C168.862 50.0508 166.272 49.8763 164.675 50.5905C163.192 51.2556 163.11 51.768 162.532 52.1605C162.069 51.4682 161.954 51.2283 161.159 50.7486C160.891 50.585 160.543 50.4378 160.194 50.3506C158.951 50.0508 157.877 50.1653 156.775 50.7977C156.072 51.2011 155.434 52.0461 155.287 52.1551H155.282ZM188.024 51.9098V61.6845C188.024 62.4259 188.88 63.2327 189.632 63.2327C190.385 63.2327 190.799 63.1509 191.289 62.4749C192.418 60.9158 190.074 54.9736 194.152 53.8287C195.362 53.4907 195.76 53.1636 195.76 51.7898C195.76 51.3319 195.498 50.9939 195.253 50.754C194.49 50.0017 193.301 50.2198 192.527 51.0975C192.353 51.2937 192.178 51.5554 192.036 51.7789L191.617 52.5367C191.617 51.7735 191.568 51.3864 191.197 50.9721C190.45 50.138 189.316 50.0944 188.564 50.7868C188.335 50.9994 188.024 51.5009 188.024 51.9152V51.9098ZM141.789 52.0951V61.4391C141.789 62.3823 142.612 63.2327 143.397 63.2327C145.082 63.2327 145.442 62.2514 145.442 60.6977C145.442 58.2936 144.995 55.2625 147.317 54.0959C148.342 53.5834 149.585 53.7252 149.585 51.9752C149.585 50.6995 148.255 49.8164 146.903 50.5905C146.652 50.7322 146.516 50.923 146.319 51.1193C146.118 51.321 145.998 51.5009 145.845 51.7571L145.442 52.4658C145.442 49.402 141.789 49.8872 141.789 52.0951ZM226.523 48.8187V50.4269C224.375 50.4269 224.239 53.518 226.523 53.518V59.8255C226.523 61.8916 227.684 63.2872 229.74 63.2872C230.748 63.2872 232.362 63.3308 232.951 62.415C233.256 61.9352 233.272 61.4228 233.027 60.9376C232.836 60.5614 232.493 60.2562 232.078 60.1526C231.359 59.9781 230.116 60.6105 230.116 58.7788V53.518H231.849C232.618 53.518 233.338 52.673 233.25 51.8716C233.06 50.1707 231.331 50.4269 230.116 50.4269V48.6933C230.116 47.9356 229.265 47.0851 228.507 47.0851C227.94 47.0851 227.433 47.156 227.003 47.6248C226.763 47.8811 226.523 48.339 226.523 48.8187ZM90.9748 59.5856C90.9748 60.8286 89.0504 60.5778 88.2981 60.4033C87.6657 60.2562 86.9025 59.94 86.3682 59.6129C86.221 59.5202 86.0848 59.4275 85.9376 59.3621C84.204 58.6207 83.0809 61.003 84.6891 61.9734C86.5154 63.0746 89.0286 63.7724 91.231 63.1182C92.8284 62.6494 94.1913 61.4828 94.1913 59.6456C94.1913 58.4898 94.1913 57.8793 93.3081 57.0016C92.2341 55.933 90.8821 55.6441 89.4756 55.1371C88.9686 54.9518 87.8129 54.5538 87.8129 53.9541C87.8129 52.3405 90.7022 53.2781 91.7926 53.8069C93.7279 54.7501 94.8073 52.1224 93.1773 51.2501C91.52 50.3615 89.0231 49.8491 87.0388 50.6505C85.0817 51.4409 84.0295 53.5344 84.7655 55.5732C85.1907 56.7453 86.3192 57.4758 87.5349 57.8793C87.8729 57.9883 88.1236 58.0864 88.4671 58.19C89.1376 58.3863 90.9639 58.7679 90.9639 59.5911L90.9748 59.5856ZM96.6717 52.0352V58.9641C96.6717 63.1073 100.897 64.2576 103.17 62.7366C104.07 62.137 104.478 61.5046 104.653 61.3737C104.653 61.9571 104.822 62.3332 105.1 62.6549C106.076 63.7942 108.24 63.14 108.24 61.6191V51.9043C108.24 50.705 106.452 49.5874 105.193 50.8358C104.865 51.1575 104.664 51.4791 104.647 52.0243C104.615 53.4199 104.805 57.6666 104.473 58.6534C104.348 59.0295 104.064 59.4657 103.759 59.6728C102.778 60.3379 100.984 60.2671 100.433 58.6534C100.128 57.7593 100.264 53.3108 100.259 52.0243C100.248 50.2089 97.6748 49.5819 96.8298 51.321C96.7262 51.5336 96.6663 51.7353 96.6663 52.0243L96.6717 52.0352ZM178.991 60.8177C178.244 60.8177 177.742 60.8395 177.181 60.278C176.205 59.3076 176.897 56.9034 180.463 57.6776L181.531 57.9719C181.531 59.0241 181.493 59.4875 180.937 60.0381C180.512 60.4633 179.808 60.8177 178.991 60.8177ZM174.286 52.2805C174.286 53.687 175.42 54.025 176.505 53.6979C176.701 53.6379 176.903 53.5889 177.159 53.5453C178.266 53.349 179.923 53.2236 180.801 53.9977C181.291 54.4339 181.466 54.9627 181.466 55.8676C179.863 55.4915 180.245 55.3715 178.064 55.3715C175.671 55.3715 173.299 56.5981 173.299 59.2095C173.299 60.5505 173.632 61.63 174.597 62.3659C176.33 63.6798 179.002 63.6743 180.724 62.4259C180.964 62.2514 181.231 61.9625 181.466 61.8044C181.466 62.2569 181.673 62.5567 181.913 62.7802C182.932 63.7343 184.933 63.091 184.933 61.679V55.3061C184.933 54.5538 184.742 53.747 184.519 53.1854C184.202 52.3732 183.804 51.8662 183.15 51.3374C181.133 49.7073 175.998 50.2579 174.864 51.1793C174.586 51.4082 174.291 51.8007 174.291 52.275L174.286 52.2805ZM132.63 53.1473C133.574 53.1473 134.135 53.1037 134.936 53.9977C135.509 54.6356 135.563 55.5351 135.661 55.7477H130.275C130.341 55.6114 130.352 55.4315 130.406 55.2571C130.624 54.5538 131.039 53.796 131.698 53.4526C131.916 53.3435 132.309 53.1473 132.63 53.1473ZM126.754 56.3637C126.754 58.3045 126.939 59.433 128.062 60.9321C130.074 63.6307 134.402 64.1377 137.079 62.3496C137.935 61.7771 138.207 61.5918 138.207 60.6269C138.207 59.6619 136.981 58.8442 135.929 59.6456C135.056 60.3052 134.146 60.5124 133.012 60.4415C131.535 60.3488 130.439 59.1222 130.352 58.0265H136.91C137.286 58.0265 137.657 58.0483 137.951 57.9556L138.474 57.6776C138.731 57.4758 138.927 57.1978 139.025 56.8653C139.134 56.4837 139.096 56.3092 139.08 55.9276C139.041 55.1753 138.922 54.6574 138.698 54.0795C138.316 53.0764 137.679 52.1333 136.877 51.5064C136.299 51.0539 136.223 51.0103 135.531 50.6886C133.628 49.7946 131.18 50.1707 129.485 51.2883C127.904 52.335 126.764 54.5265 126.764 56.3637H126.754ZM216.868 53.1473C217.85 53.1473 218.308 53.1636 219.049 53.9977C219.496 54.4993 219.605 55.0008 219.774 55.7477H214.388C214.519 55.4697 214.573 54.6792 215.178 53.9977C215.549 53.5834 216.116 53.1473 216.863 53.1473H216.868ZM210.866 56.5491C210.866 57.7648 210.97 58.697 211.466 59.7273C211.896 60.616 212.153 60.954 212.801 61.6081C214.513 63.3363 217.435 63.8215 219.725 63.0583C220.739 62.7203 222.587 61.8426 222.336 60.556C222.107 59.3839 220.984 59.0132 220.036 59.6565C219.48 60.0326 218.984 60.3161 218.269 60.4252C217.773 60.5015 217.55 60.4742 217.119 60.4524C215.614 60.3597 214.759 59.3348 214.459 58.0374H219.66C220.755 58.0374 222.265 58.3263 222.903 57.3832C224.021 55.7313 222.342 51.0157 218.455 50.3288C217.07 50.0835 215.658 50.1871 214.497 50.7758C213.886 51.0811 213.565 51.2556 213.079 51.7081C212.878 51.8989 212.84 51.8607 212.66 52.0951C212.534 52.2587 212.447 52.3241 212.316 52.4931C212.18 52.6621 212.093 52.7929 211.978 52.9619C211.346 53.916 210.866 55.2734 210.866 56.5491ZM197.87 47.4558V61.6245C197.87 62.4041 198.698 63.2327 199.478 63.2327C200.127 63.2327 200.71 63.1182 201.113 62.5186C201.593 61.8099 201.462 60.9431 201.457 59.8255C201.451 59.1277 201.669 59.2858 202.313 58.637C202.454 58.4898 202.727 58.2663 202.885 58.1573C203.054 58.2772 203.25 58.6261 203.397 58.8224L205.927 62.295C206.548 63.1182 206.734 63.2327 207.775 63.2327C208.527 63.2327 209.258 62.5622 209.258 61.4991C209.258 60.8013 207.922 59.2258 207.481 58.637C207.132 58.1736 206.827 57.743 206.483 57.285L205.485 55.933C205.611 55.7477 205.649 55.7368 205.829 55.5951C206.396 55.1589 207.492 54.1068 208.02 53.7033C210.495 51.8116 208.211 49.3312 206.418 50.6777C205.671 51.2392 204.346 52.6348 203.61 53.3163C203.457 53.4526 203.392 53.4744 203.239 53.6216C203.109 53.747 203.027 53.8342 202.901 53.965L201.462 55.3116V49.6201C201.462 48.846 201.582 47.4667 201.359 46.878C200.65 45.0462 197.875 45.5423 197.875 47.4558H197.87ZM114.995 56.7999C114.995 54.9518 116.194 53.2727 118.026 53.2727C119.857 53.2727 121.122 54.8155 121.122 56.6145V56.9252C121.122 58.7297 119.917 60.2671 117.966 60.2671C116.139 60.2671 114.995 58.5116 114.995 56.8053V56.7999ZM115.054 52.1605C115.054 50.5251 113.168 49.7128 112.007 50.7813C111.778 50.9939 111.467 51.4955 111.467 51.9098V65.397C111.467 66.1875 112.285 67.0052 113.076 67.0052C113.648 67.0052 114.204 66.9234 114.597 66.4274C114.885 66.0621 115.06 65.7295 115.054 65.0917C115.049 63.8978 115.054 62.6985 115.054 61.5046C115.18 61.5972 115.354 61.8862 115.769 62.2133C118.707 64.5029 122.49 63.0528 123.821 60.556C124.229 59.7928 124.677 58.7079 124.709 57.6067C124.736 56.7617 124.829 57.3341 124.72 56.2983C124.704 56.1348 124.72 55.9767 124.709 55.8186C124.633 54.7555 124.23 53.796 123.766 52.9292C123.45 52.3404 122.948 51.828 122.436 51.4137C122.24 51.2556 122.082 51.1466 121.853 51.0103C120.501 50.2089 118.745 49.9418 117.246 50.5142C115.872 51.0375 115.338 51.9806 115.065 52.166L115.054 52.1605Z" fill="#0C1621"/>
</g>
<defs>
<clipPath id="clip0_668_479">
<rect width="285.887" height="67" fill="white" transform="translate(0.609375)"/>
</clipPath>
</defs>
</svg>
