<svg width="287" height="67" viewBox="0 0 287 67" fill="none" xmlns="http://www.w3.org/2000/svg">
<g clip-path="url(#clip0_1163_2453)">
<path fill-rule="evenodd" clip-rule="evenodd" d="M35.8266 29.1769L35.8648 29.2041L35.9029 29.0133L35.5649 26.3747C34.8344 21.3266 33.0518 15.7878 30.5113 11.3829C30.3151 11.0449 30.1461 10.745 29.9389 10.4071C29.2738 9.30038 27.9164 7.34326 27.055 6.42194C26.8969 6.25294 26.8588 6.16026 26.6843 5.98581C26.0955 5.40249 25.4359 4.5684 24.7763 4.05595C24.5964 3.91421 24.5255 3.80518 24.3619 3.66889C24.013 3.3745 21.26 1.09574 20.7693 1.21022C20.017 1.37922 16.4844 3.26002 15.6776 3.79973C14.331 4.70469 13.8513 4.98817 12.5374 6.04578C12.3684 6.18207 12.2649 6.2802 12.0959 6.41104C11.916 6.55278 11.856 6.6291 11.6979 6.75449L9.69172 8.64619C9.55543 8.78248 9.45185 8.87515 9.32101 9.0169L7.23305 11.5083C6.31719 12.7076 5.8429 13.4327 5.04151 14.7574L4.22378 16.2293C3.16617 18.3391 2.49017 19.9855 1.82508 22.3079C1.13818 24.6957 0.609375 27.7867 0.609375 30.3108V30.3326C0.609375 32.0444 0.62573 33.1238 0.805632 34.7593C0.849245 35.1409 0.980083 35.746 0.980083 36.1331L8.30701 32.8785C8.97211 32.6386 9.53907 32.426 10.226 32.197C13.6714 31.0468 17.2803 30.1472 20.8947 29.6184C21.6416 29.5094 22.4157 29.4167 23.2444 29.3077C23.6042 29.2641 23.9967 29.2368 24.4274 29.1932C24.7817 29.1551 25.2778 29.0787 25.6758 29.0787C26.5044 29.0787 27.2785 28.9533 28.2108 28.9533C28.5924 28.9533 29.143 28.9861 29.5028 28.9424C30.5495 28.8225 30.0316 28.9533 30.7457 28.9533C31.1819 28.9533 31.6125 28.9533 32.0487 28.9533L34.5673 29.0951C34.8072 29.1278 35.554 29.215 35.8212 29.1823L35.8266 29.1769Z" fill="white"/>
<path fill-rule="evenodd" clip-rule="evenodd" d="M36.0117 29.2642L35.9517 29.2315L35.8645 29.2043L35.8263 29.177C35.2321 30.6707 34.6597 31.5757 34.0328 32.8459L32.6208 35.3318C32.4191 35.6698 32.2338 35.9533 32.032 36.2913C30.7673 38.4283 28.5485 41.3395 26.9348 43.2584L22.1647 48.3284C21.8812 48.6119 21.6359 48.7918 21.3578 49.0698L19.2862 50.8961C17.8034 52.2154 15.1158 54.1289 13.4367 55.2574C13.2568 55.3773 13.1205 55.4482 12.9406 55.5681C12.7661 55.6826 12.6462 55.808 12.4336 55.868C12.5426 56.0261 12.6517 56.1133 12.8152 56.2332C13.9437 57.0564 14.6578 57.6343 15.9608 58.4084C17.9233 59.575 20.0004 60.6054 22.1919 61.3359C24.2526 62.0228 24.7923 62.1591 27.0493 62.6061C29.955 63.184 32.7026 63.1458 35.6464 62.9823C38.8084 62.8078 42.619 61.6576 45.4211 60.5018C46.4787 60.0657 47.0348 59.7386 47.967 59.2752C49.2536 58.6374 51.0363 57.4162 52.1866 56.5603C52.6554 56.2114 52.7045 56.3095 52.6772 55.4973L52.3719 52.766C52.2247 51.8829 52.0666 51.0324 51.8268 50.2147C50.4202 45.3791 48.5122 42.1245 45.492 38.1721L43.3713 35.7135C43.2023 35.5499 43.1696 35.4954 43.0224 35.3155C42.5318 34.6995 40.6456 32.9986 39.9041 32.3062C39.746 32.159 39.637 32.0936 39.468 31.9355C39.3263 31.8047 39.2118 31.7283 39.0646 31.5975C38.9228 31.4776 38.8084 31.3849 38.6612 31.2595C37.8871 30.6053 36.5078 29.684 36.0172 29.2588L36.0117 29.2642Z" fill="white"/>
<path fill-rule="evenodd" clip-rule="evenodd" d="M35.9034 29.0134L35.8652 29.2042L35.9525 29.2314C36.0342 29.1933 36.0124 29.1769 36.0124 29.2641C38.0077 29.2641 42.2381 30.12 44.1135 30.5071C48.5402 31.423 53.9318 33.4564 57.9224 35.4517C59.5796 36.2803 60.8662 37.0054 62.469 37.9594C62.976 38.2647 63.4285 38.5863 63.93 38.8535C63.9355 38.5318 64.8132 35.3863 64.8568 31.9245C64.8568 31.5647 64.9222 31.4175 64.9222 30.9977C64.9222 30.5943 64.8786 30.3872 64.8568 30.071C64.7695 28.4246 64.8186 28.1738 64.5678 26.4021C63.7065 20.4271 61.4986 15.6243 58.1132 11.203C57.8242 10.8269 57.5244 10.5052 57.2191 10.1182L55.8071 8.55901C55.6272 8.37911 55.4909 8.24282 55.311 8.06292L52.1055 5.32622C51.7403 5.04819 51.3586 4.80832 50.9825 4.53029C50.5954 4.24136 50.2138 4.00149 49.7886 3.74526C47.9187 2.60043 46.5831 1.92443 44.5169 1.09579C44.0208 0.894081 42.0037 0.141763 41.5185 0.130859C41.5185 0.877727 41.5785 1.40653 41.5785 2.16975L41.5185 6.43834C41.4804 7.6595 41.0933 11.2575 40.9134 12.3315C40.6953 13.6344 40.4991 14.752 40.2483 16.0004L38.3948 22.8095C38.0295 23.9107 37.6425 24.9247 37.2227 25.9714C37.0046 26.5111 36.1978 28.5282 35.8925 29.0188L35.9034 29.0134Z" fill="white"/>
<path fill-rule="evenodd" clip-rule="evenodd" d="M111.211 16.2076C111.097 16.0386 110.906 15.7769 110.759 15.6079C110.65 15.4825 110.601 15.4552 110.492 15.3135C108.894 13.2637 105.383 11.8517 102.876 11.3557C99.5338 10.6906 96.0775 10.8432 92.8611 11.9172C90.2498 12.784 88.2981 14.1142 86.7226 16.2948C85.0544 18.6063 84.2803 21.283 84.2803 24.434V39.2841H92.5122V23.7526C92.5122 21.5828 93.6188 19.4567 95.5051 18.5136C97.6421 17.4451 100.809 17.3742 103.045 18.1756C104.571 18.7262 105.394 19.5003 106.092 20.945C106.806 22.4333 106.877 24.2759 106.877 26.0368V39.3986H109.974C110.393 39.3986 110.541 39.3332 110.96 39.3332H114.122C114.542 39.3332 114.689 39.2732 115.109 39.2732V25.1046C115.109 23.1965 115.769 20.9177 116.924 19.5548C119.11 16.9762 125.353 16.9108 127.691 19.2714C128.024 19.6094 128.204 19.8165 128.465 20.2254C129.218 21.4084 129.528 22.7876 129.528 24.3577V39.2678H137.7V23.7362C137.7 20.3344 136.719 17.7613 134.882 15.2972L134.097 14.414C131.829 12.1516 128.04 10.8705 124.644 10.8705C122.643 10.8705 121.536 10.9032 119.617 11.3557L117.082 12.1025C115.894 12.5277 114.482 13.291 113.49 14.0215C113.048 14.3431 112.661 14.6484 112.28 15.0355L111.211 16.1967V16.2076ZM222.62 24.2487V39.2841H230.852V23.8779C230.852 21.561 231.855 19.1787 234.068 18.1865C234.799 17.8594 235.6 17.7558 236.668 17.7558C240.305 17.7558 244.246 17.7068 247.871 17.7558C248.155 17.7558 248.488 17.8376 248.488 17.5705V11.3229C248.488 11.1812 248.444 11.1376 248.302 11.1376H236.172C233.774 11.1376 232.138 11.2902 230.328 11.9172C229.903 12.0644 229.538 12.2225 229.156 12.4133C228.775 12.6041 228.431 12.784 228.088 13.0129C224.277 15.5697 222.614 19.5276 222.614 24.2487H222.62ZM272.567 32.6605H265.884C264.335 32.6605 262.52 31.6628 261.637 30.5289C260.159 28.6372 260.127 27.476 260.127 24.7393C260.127 23.7362 260.198 22.6622 260.443 21.899C260.917 20.4271 261.997 19.1296 263.365 18.4482C264.035 18.1156 264.908 17.7504 265.884 17.7504H272.753C275.206 17.7504 277.539 19.7238 278.16 22.1771C278.466 23.3819 278.384 27.0562 278.062 28.2556C277.839 29.0788 277.419 29.7875 276.934 30.4089C276.127 31.4447 274.377 32.6605 272.567 32.6605ZM286.491 22.9403V27.5251C286.491 30.5289 285.111 33.5927 283.072 35.6152C281.033 37.6378 278.155 39.2787 275.228 39.2787H263.158C260.83 39.2787 258.071 38.0466 256.37 36.602C255.771 36.095 255.024 35.3917 254.539 34.7866C253.874 33.9579 253.296 33.1565 252.876 32.1153C251.606 28.9316 251.895 26.5928 251.895 23.1365C251.895 21.054 252.407 19.3967 253.11 17.9793C253.541 17.1234 254.43 15.8587 255.128 15.1718C257.161 13.1601 259.489 11.7754 262.395 11.3011C264.101 11.0231 271.351 11.1321 273.369 11.1321C276.345 11.1321 278.586 11.5737 280.794 13.0511L282.157 14.0433C283.378 14.9864 284.582 16.4747 285.269 17.8594C285.64 18.6008 285.896 19.2332 286.114 20.1055C286.338 20.9941 286.441 21.9535 286.485 22.9457L286.491 22.9403ZM184.862 39.2787H193.094V25.9768H198.791C200.623 25.9768 201.926 26.3584 202.94 27.7704C203.147 28.0593 203.332 28.3373 203.534 28.6644C203.643 28.8443 203.719 28.9643 203.806 29.1333L204.858 31.0522C204.951 31.2267 205.011 31.3575 205.115 31.5374L209.312 39.2841H218.596C218.504 39.1042 218.433 38.9407 218.329 38.7499C218.209 38.5318 218.139 38.4282 218.019 38.1938L213.603 29.9837C213.488 29.7493 213.412 29.6457 213.292 29.4277L212.714 28.3319C212.005 26.8981 211.15 25.3226 209.972 24.3304C209.52 23.9488 208.369 23.3219 207.579 23.3219V23.1965C208.075 23.1856 209.132 22.6077 209.487 22.3788C209.983 22.0626 210.594 21.5174 210.964 21.0758C211.471 20.4762 212.185 19.3531 212.665 18.6335L216.007 13.6835C216.209 13.3782 216.383 13.1547 216.59 12.8439C216.803 12.5277 217.604 11.4047 217.67 11.1376H208.446C207.884 11.9771 204.951 16.4965 204.313 17.2161C204.133 17.4178 204.03 17.505 203.839 17.734L203.294 18.241C202.667 18.8298 201.473 19.3695 200.274 19.3695H193.094V0H184.862V39.2841V39.2787ZM166.294 32.6605H152.801C151.64 32.6605 150.653 31.5102 150.582 30.1745C150.517 28.9534 151.526 27.7104 152.801 27.7104L169.45 27.7704C169.45 29.0842 169.608 30.0001 169.123 30.9705C168.627 31.9572 167.488 32.6605 166.294 32.6605ZM146.984 11.3175V17.6304C146.984 17.9357 147.813 17.8158 148.407 17.8158C150.98 17.8158 165.422 17.7286 166.485 17.8758C168.611 18.1701 169.39 19.4076 169.39 21.5937V21.8391C167.978 21.8391 166.654 21.899 165.182 21.899H152.185C150.615 21.899 149.568 22.019 148.429 22.4714C147.606 22.7985 146.734 23.3164 146.074 23.8889C145.469 24.4177 145.289 24.543 144.722 25.2627C143.73 26.5274 143.087 28.4355 143.087 30.1255C143.087 32.3824 143.326 33.7235 144.498 35.5825C145.681 37.4578 148.189 39.2841 150.702 39.2841H167.848C169.925 39.2841 171.996 38.5591 173.517 37.4633C174.122 37.0272 174.957 36.2258 175.425 35.5989C176.87 33.6744 177.688 31.7337 177.688 29.0733V20.8469C177.688 17.7994 176.396 14.9482 174.161 13.2365C171.669 11.3284 168.366 11.1321 165.122 11.1321H147.175C147.033 11.1321 146.99 11.1758 146.99 11.3175H146.984Z" fill="white"/>
<path fill-rule="evenodd" clip-rule="evenodd" d="M155.282 52.1553C155.282 50.4326 153.227 49.6912 152.137 50.8688C151.826 51.2068 151.63 51.6483 151.63 52.2807V61.374C151.63 63.68 154.966 63.9308 155.266 61.6084C155.462 60.1147 155.059 56.2222 155.38 55.0447C155.735 53.7527 156.509 53.5237 157.632 53.5237C159.922 53.5237 159.491 56.6365 159.491 58.223C159.491 59.2806 159.442 60.4581 159.491 61.5048C159.513 62.0336 159.731 62.3825 159.987 62.6824C160.587 63.3856 161.819 63.451 162.544 62.7587C162.882 62.437 163.013 62.219 163.105 61.6466C163.476 59.406 162.506 55.3009 163.781 54.0307C164.485 53.3274 166.785 53.0385 167.248 55.0556C167.477 56.0423 167.325 60.1201 167.357 61.5048C167.368 61.99 167.592 62.4316 167.837 62.6933C168.857 63.7999 170.95 63.1076 170.95 61.6247V54.4505C170.95 53.2947 170.574 52.368 170.067 51.6811C168.862 50.051 166.273 49.8766 164.675 50.5907C163.192 51.2558 163.111 51.7683 162.533 52.1608C162.069 51.4684 161.955 51.2286 161.159 50.7488C160.892 50.5853 160.543 50.4381 160.194 50.3509C158.951 50.051 157.877 50.1655 156.776 50.7979C156.073 51.2013 155.435 52.0463 155.288 52.1553H155.282ZM188.024 51.91V61.6847C188.024 62.4261 188.88 63.233 189.633 63.233C190.385 63.233 190.799 63.1512 191.29 62.4752C192.418 60.916 190.074 54.9738 194.152 53.829C195.362 53.491 195.76 53.1639 195.76 51.7901C195.76 51.3322 195.499 50.9942 195.253 50.7543C194.49 50.002 193.302 50.22 192.527 51.0977C192.353 51.294 192.179 51.5557 192.037 51.7792L191.617 52.537C191.617 51.7737 191.568 51.3867 191.197 50.9723C190.45 50.1383 189.316 50.0946 188.564 50.787C188.335 50.9996 188.024 51.5012 188.024 51.9155V51.91ZM141.79 52.0954V61.4394C141.79 62.3825 142.613 63.233 143.398 63.233C145.082 63.233 145.442 62.2517 145.442 60.698C145.442 58.2938 144.995 55.2627 147.317 54.0961C148.342 53.5837 149.585 53.7254 149.585 51.9754C149.585 50.6998 148.255 49.8166 146.903 50.5907C146.652 50.7325 146.516 50.9233 146.32 51.1195C146.118 51.3212 145.998 51.5012 145.846 51.7574L145.442 52.4661C145.442 49.4023 141.79 49.8875 141.79 52.0954ZM226.524 48.819V50.4272C224.376 50.4272 224.239 53.5182 226.524 53.5182V59.8257C226.524 61.8919 227.685 63.2875 229.74 63.2875C230.749 63.2875 232.362 63.3311 232.951 62.4152C233.256 61.9355 233.273 61.423 233.027 60.9378C232.836 60.5617 232.493 60.2564 232.079 60.1528C231.359 59.9784 230.116 60.6108 230.116 58.779V53.5182H231.85C232.618 53.5182 233.338 52.6732 233.251 51.8719C233.06 50.171 231.332 50.4272 230.116 50.4272V48.6936C230.116 47.9358 229.266 47.0854 228.508 47.0854C227.941 47.0854 227.434 47.1562 227.003 47.6251C226.763 47.8813 226.524 48.3392 226.524 48.819ZM90.9753 59.5859C90.9753 60.8288 89.0509 60.578 88.2986 60.4036C87.6662 60.2564 86.903 59.9402 86.3687 59.6131C86.2215 59.5204 86.0852 59.4278 85.938 59.3623C84.2044 58.6209 83.0814 61.0033 84.6896 61.9736C86.5159 63.0749 89.0291 63.7727 91.2315 63.1185C92.8288 62.6496 94.1917 61.483 94.1917 59.6458C94.1917 58.4901 94.1917 57.8795 93.3086 57.0018C92.2346 55.9333 90.8826 55.6444 89.4761 55.1374C88.9691 54.952 87.8134 54.554 87.8134 53.9544C87.8134 52.3407 90.7027 53.2784 91.793 53.8072C93.7284 54.7503 94.8078 52.1226 93.1778 51.2504C91.5205 50.3618 89.0236 49.8493 87.0393 50.6507C85.0821 51.4412 84.03 53.5346 84.7659 55.5735C85.1912 56.7456 86.3197 57.4761 87.5354 57.8795C87.8734 57.9885 88.1241 58.0867 88.4676 58.1902C89.1381 58.3865 90.9644 58.7681 90.9644 59.5913L90.9753 59.5859ZM96.6722 52.0354V58.9644C96.6722 63.1076 100.897 64.2579 103.171 62.7369C104.07 62.1372 104.479 61.5048 104.653 61.374C104.653 61.9573 104.822 62.3335 105.1 62.6551C106.076 63.7945 108.24 63.1403 108.24 61.6193V51.9046C108.24 50.7052 106.452 49.5876 105.193 50.8361C104.866 51.1577 104.664 51.4793 104.648 52.0245C104.615 53.4201 104.806 57.6669 104.473 58.6536C104.348 59.0298 104.065 59.4659 103.759 59.6731C102.778 60.3382 100.984 60.2673 100.434 58.6536C100.129 57.7596 100.265 53.3111 100.259 52.0245C100.248 50.2091 97.6753 49.5822 96.8303 51.3212C96.7267 51.5339 96.6668 51.7356 96.6668 52.0245L96.6722 52.0354ZM178.991 60.8179C178.244 60.8179 177.743 60.8397 177.181 60.2782C176.205 59.3078 176.898 56.9037 180.463 57.6778L181.532 57.9722C181.532 59.0243 181.493 59.4877 180.937 60.0383C180.512 60.4636 179.809 60.8179 178.991 60.8179ZM174.286 52.2807C174.286 53.6872 175.42 54.0252 176.505 53.6981C176.702 53.6382 176.903 53.5891 177.159 53.5455C178.266 53.3492 179.923 53.2239 180.801 53.998C181.292 54.4341 181.466 54.9629 181.466 55.8679C179.863 55.4917 180.245 55.3718 178.064 55.3718C175.671 55.3718 173.3 56.5984 173.3 59.2097C173.3 60.5508 173.632 61.6302 174.597 62.3662C176.331 63.68 179.002 63.6745 180.725 62.4261C180.965 62.2517 181.232 61.9627 181.466 61.8047C181.466 62.2571 181.673 62.557 181.913 62.7805C182.933 63.7345 184.933 63.0912 184.933 61.6793V55.3064C184.933 54.554 184.743 53.7472 184.519 53.1857C184.203 52.3734 183.805 51.8664 183.151 51.3376C181.134 49.7076 175.998 50.2582 174.864 51.1795C174.586 51.4085 174.292 51.801 174.292 52.2753L174.286 52.2807ZM132.631 53.1475C133.574 53.1475 134.136 53.1039 134.937 53.998C135.509 54.6358 135.564 55.5353 135.662 55.7479H130.276C130.341 55.6116 130.352 55.4317 130.407 55.2573C130.625 54.554 131.039 53.7963 131.699 53.4528C131.917 53.3438 132.309 53.1475 132.631 53.1475ZM126.754 56.364C126.754 58.3047 126.939 59.4332 128.062 60.9324C130.074 63.6309 134.403 64.1379 137.079 62.3498C137.935 61.7774 138.208 61.592 138.208 60.6271C138.208 59.6622 136.981 58.8444 135.929 59.6458C135.057 60.3055 134.146 60.5126 133.012 60.4418C131.535 60.3491 130.439 59.1225 130.352 58.0267H136.91C137.287 58.0267 137.657 58.0485 137.952 57.9558L138.475 57.6778C138.731 57.4761 138.927 57.1981 139.026 56.8655C139.135 56.4839 139.096 56.3094 139.08 55.9278C139.042 55.1755 138.922 54.6576 138.699 54.0798C138.317 53.0767 137.679 52.1335 136.878 51.5066C136.3 51.0541 136.223 51.0105 135.531 50.6889C133.629 49.7948 131.181 50.171 129.485 51.2885C127.904 52.3352 126.765 54.5268 126.765 56.364H126.754ZM216.869 53.1475C217.85 53.1475 218.308 53.1639 219.049 53.998C219.496 54.4995 219.605 55.0011 219.774 55.7479H214.388C214.519 55.4699 214.574 54.6794 215.179 53.998C215.55 53.5837 216.116 53.1475 216.863 53.1475H216.869ZM210.867 56.5493C210.867 57.765 210.97 58.6972 211.466 59.7276C211.897 60.6162 212.153 60.9542 212.802 61.6084C214.514 63.3365 217.436 63.8217 219.725 63.0585C220.739 62.7205 222.588 61.8428 222.337 60.5562C222.108 59.3841 220.985 59.0134 220.036 59.6567C219.48 60.0329 218.984 60.3164 218.27 60.4254C217.774 60.5017 217.55 60.4745 217.12 60.4527C215.615 60.36 214.759 59.3351 214.459 58.0376H219.66C220.756 58.0376 222.266 58.3265 222.904 57.3834C224.021 55.7316 222.342 51.016 218.455 50.3291C217.071 50.0837 215.659 50.1873 214.497 50.7761C213.887 51.0814 213.565 51.2558 213.08 51.7083C212.878 51.8991 212.84 51.861 212.66 52.0954C212.535 52.2589 212.448 52.3243 212.317 52.4933C212.18 52.6623 212.093 52.7932 211.979 52.9622C211.346 53.9162 210.867 55.2737 210.867 56.5493ZM197.87 47.4561V61.6247C197.87 62.4043 198.699 63.233 199.478 63.233C200.127 63.233 200.71 63.1185 201.114 62.5188C201.593 61.8101 201.463 60.9433 201.457 59.8257C201.452 59.1279 201.67 59.286 202.313 58.6373C202.455 58.4901 202.727 58.2666 202.885 58.1575C203.054 58.2775 203.251 58.6264 203.398 58.8226L205.927 62.2953C206.549 63.1185 206.734 63.233 207.776 63.233C208.528 63.233 209.258 62.5624 209.258 61.4994C209.258 60.8016 207.923 59.226 207.481 58.6373C207.132 58.1739 206.827 57.7432 206.484 57.2853L205.486 55.9333C205.611 55.7479 205.649 55.737 205.829 55.5953C206.396 55.1592 207.492 54.107 208.021 53.7036C210.496 51.8119 208.212 49.3314 206.418 50.678C205.671 51.2395 204.347 52.6351 203.611 53.3165C203.458 53.4528 203.392 53.4746 203.24 53.6218C203.109 53.7472 203.027 53.8344 202.902 53.9653L201.463 55.3118V49.6204C201.463 48.8462 201.583 47.467 201.359 46.8782C200.65 45.0465 197.875 45.5426 197.875 47.4561H197.87ZM114.995 56.8001C114.995 54.952 116.194 53.2729 118.026 53.2729C119.858 53.2729 121.123 54.8157 121.123 56.6147V56.9255C121.123 58.73 119.918 60.2673 117.966 60.2673C116.14 60.2673 114.995 58.5119 114.995 56.8055V56.8001ZM115.055 52.1608C115.055 50.5253 113.169 49.713 112.008 50.7815C111.779 50.9942 111.468 51.4957 111.468 51.91V65.3972C111.468 66.1877 112.286 67.0055 113.076 67.0055C113.648 67.0055 114.205 66.9237 114.597 66.4276C114.886 66.0623 115.06 65.7298 115.055 65.092C115.05 63.8981 115.055 62.6987 115.055 61.5048C115.18 61.5975 115.355 61.8864 115.769 62.2135C118.708 64.5032 122.491 63.0531 123.821 60.5562C124.23 59.793 124.677 58.7081 124.71 57.6069C124.737 56.7619 124.83 57.3343 124.721 56.2985C124.704 56.135 124.721 55.9769 124.71 55.8188C124.633 54.7557 124.23 53.7963 123.767 52.9295C123.45 52.3407 122.949 51.8282 122.436 51.4139C122.24 51.2558 122.082 51.1468 121.853 51.0105C120.501 50.2091 118.746 49.942 117.247 50.5144C115.873 51.0378 115.338 51.9809 115.066 52.1662L115.055 52.1608Z" fill="white"/>
</g>
<defs>
<clipPath id="clip0_1163_2453">
<rect width="285.887" height="67" fill="white" transform="translate(0.609375)"/>
</clipPath>
</defs>
</svg>
