<svg xmlns="http://www.w3.org/2000/svg" width="216" height="25" viewBox="0 0 216 25" fill="none">
  <g clip-path="url(#clip0_1163_2454)">
    <path d="M202.036 16.3934L208.104 25H215.496V24.5483L206.296 11.145L215.094 0.447474V0H208.022L198.863 11.0656V0H192.315V25H198.863V20.2451L202.036 16.3934ZM174.834 12.8262V5.73771H178.532C181.262 5.73771 182.791 7.05085 182.791 9.34259C182.791 11.6343 181.266 12.8262 178.532 12.8262H174.834ZM190.06 24.4647L184.595 16.9246C187.609 15.5738 189.257 12.9893 189.257 9.34259C189.257 3.35815 185.358 0 178.45 0H168.286V25H174.834V18.0328H178.167L183.07 25H190.06V24.4689V24.4647ZM155.548 14.9548H149.238L151.69 7.7827C151.973 6.88357 152.211 6.14336 152.412 5.48678C152.571 6.14336 152.813 6.87939 153.096 7.7827L155.548 14.9548ZM147.192 21.0187H157.639L159.004 24.9958H165.994L156.872 0H147.951L138.788 25H145.819L147.184 21.0229L147.192 21.0187ZM126.341 13.5999V5.73771H129.555C132.408 5.73771 134.016 7.17213 134.016 9.71479C134.016 12.2574 132.531 13.6082 129.838 13.6082H126.341V13.5999ZM119.789 0V25H126.337V19.2623H129.871C136.578 19.2623 140.358 15.8205 140.358 9.71479C140.358 3.60907 136.504 0 129.592 0H119.789Z" fill="white"/>
    <path d="M107.051 14.959H100.741L103.193 7.78689C103.472 6.88776 103.714 6.14754 103.915 5.49097C104.075 6.14754 104.316 6.88357 104.599 7.78689L107.051 14.959ZM98.6956 21.0229H109.142L110.507 25H117.497L108.379 0H99.4582L90.2991 25H97.3303L98.6956 21.0229ZM88.0483 25V0H81.5008V25H88.0483ZM62.453 19.141V5.85898H64.5808C69.6851 5.85898 71.9728 7.9918 71.9728 12.5376C71.9728 17.0835 69.4801 19.1368 64.5808 19.1368H62.453V19.141ZM55.9055 0V25H64.5849C73.3053 25 78.6064 20.0401 78.6064 12.5418C78.6064 5.04349 73.502 0 64.5808 0H55.9014H55.9055ZM52.6092 25V19.0574H40.7566V15.5738H50.6003V9.83607H40.7566V6.0639H52.2894V0H34.2091V25H52.6092ZM23.078 25H29.6665L28.703 0H21.3889L15.6819 13.6082C15.399 14.3443 15.1981 15.0427 15.0792 15.4943C14.9603 15.0427 14.7595 14.3484 14.4766 13.6082L8.77368 0H1.45956L0.496094 25H7.08455L7.40843 11.6385V10.6557L13.1154 25H17.0513L22.7952 10.6557V11.8058L23.078 25.0042V25Z" fill="white"/>
  </g>
  <defs>
    <clipPath id="clip0_1163_2454">
      <rect width="215" height="25" fill="white" transform="translate(0.496094)"/>
    </clipPath>
  </defs>
</svg>