<svg width="166" height="70" viewBox="0 0 166 70" fill="none" xmlns="http://www.w3.org/2000/svg">
<path d="M26.8483 36.4219L23.1325 52.532C23.1325 52.532 12.9793 52.3797 0 75.0001C0 75.0001 1.52459 49.2637 26.8512 36.4219H26.8483Z" fill="white"/>
<path d="M8.75925 43.8077L10.9534 29.3025C10.9534 29.3025 29.4136 28.175 33.1265 4.08154C33.1265 4.08154 37.7119 27.9641 8.75635 43.8106L8.75925 43.8077Z" fill="white"/>
<path d="M17.2661 20.7014C20.9575 20.7014 23.9499 17.6779 23.9499 13.9481C23.9499 10.2184 20.9575 7.19482 17.2661 7.19482C13.5747 7.19482 10.5823 10.2184 10.5823 13.9481C10.5823 17.6779 13.5747 20.7014 17.2661 20.7014Z" fill="#DFAE02"/>
<path d="M32.9061 -5L34.0857 -1.33049H37.9059L34.8162 0.939159L35.9958 4.60867L32.9061 2.34195L29.8163 4.60867L30.996 0.939159L27.9062 -1.33049H31.7264L32.9061 -5Z" fill="#DFAE02"/>
<path d="M64.4761 49.5945H58.9574V38.34H51.5084V49.5945H45.9231V23.2549H51.5084V33.6221H58.9574V23.2549H64.4761V49.5945Z" fill="white"/>
<path d="M87.2607 49.5945H81.4725L77.5799 40.1879H74.2264V49.5945H68.5715V23.2549H84.2811C85.1623 23.2549 85.8666 23.454 86.397 23.8552C86.9274 24.2565 87.1912 24.8539 87.1912 25.6505V37.7953C87.1912 38.4776 86.9709 39.0487 86.5303 39.5056C86.0898 39.9624 85.397 40.1879 84.4492 40.1879H83.3304L87.2578 49.5945H87.2607ZM81.6059 35.5344V27.9055H74.2235V35.5344H81.6059Z" fill="white"/>
<path d="M120.236 49.5945H114.819L106.863 35.5344H106.457V49.5945H100.973V23.2871H106.527L114.382 37.9974H114.753V23.2871H120.236V49.5945Z" fill="white"/>
<path d="M140.856 49.5944H135.914V48.3292C135.758 48.5781 135.555 48.7978 135.305 48.9794C135.102 49.1375 134.842 49.281 134.529 49.4069C134.213 49.5329 133.862 49.5944 133.479 49.5944H126.607C125.998 49.5944 125.5 49.445 125.117 49.1492C124.735 48.8534 124.541 48.2706 124.541 47.4038V40.0472C124.541 39.8422 124.59 39.6196 124.694 39.3795C124.796 39.1393 124.941 38.9168 125.135 38.7147C125.326 38.5097 125.564 38.3369 125.848 38.2022C126.129 38.0645 126.462 37.9972 126.845 37.9972H135.917V34.3042H126.607V30.541H138.085C139.033 30.541 139.731 30.8104 140.183 31.3464C140.636 31.8823 140.859 32.6291 140.859 33.5867V49.5973L140.856 49.5944ZM135.914 45.8311V41.6901H129.413V45.8311H135.914Z" fill="white"/>
<path d="M157.038 26.4675H152.603V30.5031H156.905V33.7538H152.603V49.5916H147.728V33.7538H144.276V30.5031H147.728V25.5773C147.728 24.8012 147.948 24.2272 148.389 23.8494C148.83 23.4716 149.409 23.2842 150.134 23.2842H157.041V26.4646L157.038 26.4675Z" fill="white"/>
<path d="M166 49.6062L163.562 47.7846L161.125 49.6062V33.4814L163.562 29.5396L166 33.4814V49.6062Z" fill="white"/>
<path d="M163.539 28.213C164.898 28.213 166 27.0998 166 25.7266C166 24.3534 164.898 23.2402 163.539 23.2402C162.18 23.2402 161.079 24.3534 161.079 25.7266C161.079 27.0998 162.18 28.213 163.539 28.213Z" fill="#DFAE02"/>
</svg>
