<svg width="166" height="80" viewBox="0 0 166 80" fill="none" xmlns="http://www.w3.org/2000/svg">
<path d="M26.8483 41.4219L23.1325 57.532C23.1325 57.532 12.9793 57.3797 0 80.0001C0 80.0001 1.52459 54.2637 26.8512 41.4219H26.8483Z" fill="white"/>
<path d="M8.75876 48.8077L10.9529 34.3025C10.9529 34.3025 29.4131 33.175 33.126 9.08154C33.126 9.08154 37.7114 32.9641 8.75586 48.8106L8.75876 48.8077Z" fill="white"/>
<path d="M17.2659 25.7012C20.9572 25.7012 23.9497 22.6776 23.9497 18.9479C23.9497 15.2181 20.9572 12.1946 17.2659 12.1946C13.5745 12.1946 10.582 15.2181 10.582 18.9479C10.582 22.6776 13.5745 25.7012 17.2659 25.7012Z" fill="#DFAE02"/>
<path d="M32.9061 0L34.0857 3.66951H37.9059L34.8162 5.93916L35.9958 9.60867L32.9061 7.34195L29.8163 9.60867L30.996 5.93916L27.9062 3.66951H31.7264L32.9061 0Z" fill="#DFAE02"/>
<path d="M64.4758 54.5946H58.9572V43.3401H51.5082V54.5946H45.9229V28.255H51.5082V38.6222H58.9572V28.255H64.4758V54.5946Z" fill="white"/>
<path d="M87.2605 54.5946H81.4723L77.5797 45.188H74.2262V54.5946H68.5713V28.255H84.2809C85.162 28.255 85.8663 28.4541 86.3968 28.8554C86.9272 29.2566 87.1909 29.854 87.1909 30.6506V42.7954C87.1909 43.4778 86.9706 44.0488 86.5301 44.5057C86.0895 44.9625 85.3968 45.188 84.449 45.188H83.3302L87.2576 54.5946H87.2605ZM81.6056 40.5345V32.9056H74.2233V40.5345H81.6056Z" fill="white"/>
<path d="M120.236 54.5947H114.819L106.862 40.5346H106.457V54.5947H100.973V28.2872H106.526L114.381 42.9975H114.752V28.2872H120.236V54.5947Z" fill="white"/>
<path d="M140.855 54.5946H135.914V53.3295C135.757 53.5784 135.554 53.798 135.305 53.9796C135.102 54.1377 134.841 54.2812 134.528 54.4072C134.212 54.5331 133.861 54.5946 133.479 54.5946H126.607C125.998 54.5946 125.499 54.4452 125.117 54.1495C124.734 53.8537 124.54 53.2709 124.54 52.404V45.0474C124.54 44.8424 124.589 44.6199 124.694 44.3797C124.795 44.1396 124.94 43.917 125.134 43.7149C125.326 43.5099 125.563 43.3371 125.847 43.2024C126.128 43.0648 126.462 42.9974 126.844 42.9974H135.916V39.3045H126.607V35.5413H138.085C139.032 35.5413 139.731 35.8107 140.183 36.3466C140.635 36.8825 140.858 37.6293 140.858 38.587V54.5975L140.855 54.5946ZM135.914 50.8314V46.6904H129.412V50.8314H135.914Z" fill="white"/>
<path d="M157.038 31.4677H152.604V35.5032H156.905V38.754H152.604V54.5917H147.728V38.754H144.276V35.5032H147.728V30.5774C147.728 29.8013 147.949 29.2273 148.389 28.8495C148.83 28.4717 149.41 28.2843 150.134 28.2843H157.041V31.4647L157.038 31.4677Z" fill="white"/>
<path d="M166 54.6063L163.563 52.7847L161.125 54.6063V38.4815L163.563 34.5397L166 38.4815V54.6063Z" fill="white"/>
<path d="M163.539 33.2131C164.898 33.2131 166 32.0999 166 30.7267C166 29.3535 164.898 28.2404 163.539 28.2404C162.18 28.2404 161.078 29.3535 161.078 30.7267C161.078 32.0999 162.18 33.2131 163.539 33.2131Z" fill="#DFAE02"/>
</svg>
