<svg xmlns="http://www.w3.org/2000/svg" width="215" height="67" viewBox="0 0 215 67" fill="none">
  <g clip-path="url(#clip0_1163_2452)">
    <path d="M82.9222 34.6439L95.3679 33.7388C95.6329 36.0727 96.1881 37.8619 97.0167 39.0729C98.371 41.0548 100.297 42.0478 102.804 42.0478C104.672 42.0478 106.114 41.545 107.12 40.5268C108.137 39.5086 108.642 38.327 108.642 36.9904C108.642 35.6537 108.167 34.5769 107.212 33.567C106.253 32.5614 104.02 31.6228 100.516 30.7178C94.7665 29.2303 90.6782 27.2358 88.2303 24.7552C85.7613 22.2831 84.5247 19.1237 84.5247 15.2772C84.5247 12.7589 85.1556 10.3789 86.4217 8.13302C87.6877 5.87874 89.5804 4.1147 92.1209 2.83252C94.6613 1.55034 98.1355 0.909256 102.552 0.909256C107.973 0.909256 112.104 2.0783 114.947 4.42477C117.79 6.75866 119.481 10.4795 120.024 15.5872L107.696 16.4336C107.372 14.2003 106.678 12.5745 105.631 11.5689C104.575 10.5507 103.124 10.0479 101.273 10.0479C99.7506 10.0479 98.5982 10.425 97.8243 11.1709C97.0546 11.9167 96.6676 12.8301 96.6676 13.907C96.6676 14.6864 96.983 15.3819 97.6055 16.0146C98.207 16.6683 99.6707 17.2633 101.98 17.8248C107.708 19.2536 111.809 20.7076 114.278 22.1741C116.756 23.6406 118.564 25.4466 119.691 27.6213C120.819 29.7834 121.382 32.2136 121.382 34.9037C121.382 38.0505 120.629 40.9584 119.132 43.6275C117.622 46.2841 115.528 48.3079 112.819 49.6822C110.123 51.0566 106.724 51.7438 102.615 51.7438C95.4058 51.7438 90.4048 50.1306 87.633 46.9126C84.857 43.6946 83.2882 39.6092 82.9222 34.6523V34.6439ZM154.08 42.8063H139.224L137.092 50.9099H123.708L139.679 1.73052H154.03L169.933 50.9099H156.204L154.08 42.8063ZM151.304 32.1592L146.673 14.4852L142.021 32.1592H151.304ZM194.34 33.1187V22.8864H214.609V43.7993C210.727 46.8665 207.299 48.9615 204.326 50.0719C201.344 51.1823 197.806 51.7312 193.718 51.7312C188.679 51.7312 184.57 50.734 181.403 48.7437C178.231 46.7617 175.771 43.7993 174.025 39.8606C172.276 35.9345 171.409 31.4133 171.409 26.3181C171.409 20.9506 172.368 16.2912 174.273 12.3189C176.179 8.35929 178.976 5.34659 182.66 3.28505C185.533 1.69281 189.407 0.905066 194.265 0.905066C199.123 0.905066 202.454 1.39531 204.776 2.37999C207.106 3.36467 209.032 4.88568 210.563 6.95979C212.094 9.0339 213.251 11.6527 214.021 14.8246L201.398 17.456C200.877 15.5914 199.998 14.1584 198.753 13.1737C197.508 12.1765 195.926 11.6862 193.991 11.6862C191.127 11.6862 188.835 12.8427 187.127 15.1557C185.419 17.4686 184.57 21.1308 184.57 26.1338C184.57 31.4468 185.428 35.2473 187.157 37.5225C188.877 39.8019 191.287 40.9458 194.366 40.9458C195.829 40.9458 197.222 40.707 198.555 40.2126C199.88 39.7223 201.398 38.8843 203.118 37.7153V33.1145H194.349L194.34 33.1187ZM15.0787 44.2099L29.2993 30.0432L43.52 44.2099L29.2993 58.3767L15.0787 44.2099ZM0 29.1884L14.2206 15.0216L28.4413 29.1884L14.2206 43.3552L0 29.1884ZM15.0787 14.1668L29.2993 0L43.52 14.1668L29.2993 28.3336L15.0787 14.1668ZM30.1574 29.1884L44.378 15.0216L58.5987 29.1884L44.378 43.3552L30.1574 29.1884Z" fill="white"/>
    <path d="M82.157 64.2094L83.7679 64.0502C83.8647 64.5865 84.0581 64.9804 84.3526 65.2318C84.647 65.4832 85.0466 65.6089 85.5471 65.6089C86.077 65.6089 86.4766 65.4958 86.7458 65.2737C87.015 65.0516 87.1496 64.7876 87.1496 64.4901C87.1496 64.2974 87.0907 64.134 86.9813 63.9957C86.8678 63.8616 86.6701 63.7443 86.3883 63.6437C86.1948 63.5767 85.7574 63.4594 85.0718 63.2876C84.1885 63.0697 83.5702 62.7973 83.2169 62.4789C82.7164 62.0305 82.4683 61.4816 82.4683 60.8321C82.4683 60.4173 82.586 60.0276 82.8216 59.6631C83.0571 59.3028 83.3978 59.0262 83.8394 58.8377C84.2811 58.6491 84.8152 58.5527 85.4461 58.5527C86.4682 58.5527 87.2379 58.779 87.7553 59.2315C88.2726 59.6841 88.5418 60.2874 88.5712 61.0458L86.9141 61.1045C86.8425 60.6855 86.6911 60.3838 86.464 60.1994C86.2327 60.0151 85.8878 59.9229 85.4251 59.9229C84.9624 59.9229 84.5755 60.0235 84.3063 60.2204C84.1339 60.3461 84.0455 60.5179 84.0455 60.7274C84.0455 60.9201 84.1254 61.0877 84.2895 61.2218C84.4956 61.3978 85.0003 61.5822 85.8037 61.7707C86.607 61.9593 87.1959 62.1562 87.5786 62.3574C87.9614 62.5585 88.2642 62.835 88.4829 63.187C88.7016 63.539 88.8068 63.9705 88.8068 64.4859C88.8068 64.951 88.6764 65.391 88.4156 65.7974C88.1548 66.2039 87.7889 66.5098 87.3094 66.7067C86.8341 66.9078 86.2411 67.0042 85.5303 67.0042C84.4956 67.0042 83.7006 66.7654 83.1496 66.2919C82.5944 65.8184 82.2664 65.127 82.157 64.2178V64.2094ZM97.5806 66.8492H95.7972L95.0906 64.9929H91.8099L91.1285 66.8492H89.3788L92.5544 58.6994H94.3041L97.5806 66.8492ZM94.5522 63.6186L93.4166 60.6017L92.3104 63.6186H94.5522ZM98.4386 66.8492V58.6994H100.92L102.388 64.2555L103.839 58.6994H106.325V66.8492H104.794V60.4341L103.175 66.8492H101.585L99.978 60.4341V66.8492H98.4428H98.4386ZM115.347 66.8492H113.564L112.857 64.9929H109.576L108.895 66.8492H107.145L110.321 58.6994H112.07L115.347 66.8492ZM112.319 63.6186L111.183 60.6017L110.077 63.6186H112.319ZM116.226 66.8492V58.6994H119.704C120.579 58.6994 121.214 58.7748 121.61 58.9215C122.009 59.0681 122.325 59.3279 122.56 59.7008C122.8 60.0779 122.918 60.5053 122.918 60.983C122.918 61.5947 122.737 62.1018 122.379 62.4998C122.018 62.8979 121.484 63.1493 120.769 63.254C121.126 63.4594 121.416 63.6898 121.648 63.937C121.879 64.1842 122.19 64.6284 122.586 65.2611L123.582 66.8492H121.61L120.424 65.0684C119.999 64.4357 119.709 64.0376 119.549 63.8742C119.393 63.7108 119.225 63.5976 119.052 63.5348C118.876 63.4719 118.598 63.4426 118.215 63.4426H117.879V66.845H116.222L116.226 66.8492ZM117.883 62.1479H119.107C119.898 62.1479 120.394 62.1143 120.592 62.0473C120.79 61.9802 120.945 61.8671 121.055 61.7037C121.168 61.5403 121.223 61.335 121.223 61.0919C121.223 60.8154 121.147 60.5975 121 60.4257C120.853 60.2581 120.647 60.1492 120.377 60.1073C120.243 60.0863 119.839 60.0779 119.17 60.0779H117.883V62.1479ZM124.499 66.8492V58.6994H126.156V62.3071L129.496 58.6994H131.717L128.63 61.8713L131.877 66.845H129.74L127.49 63.0194L126.161 64.3812V66.845H124.504L124.499 66.8492ZM140.095 66.8492H138.312L137.605 64.9929H134.325L133.643 66.8492H131.894L135.069 58.6994H136.819L140.095 66.8492ZM137.067 63.6186L135.931 60.6017L134.825 63.6186H137.067ZM140.974 66.8492V58.6994H142.577L145.942 64.1591V58.6994H147.473V66.8492H145.82L142.505 61.4942V66.8492H140.974ZM149.227 58.6994H152.238C152.92 58.6994 153.437 58.7497 153.79 58.8544C154.27 58.9927 154.678 59.2441 155.018 59.6044C155.359 59.9648 155.62 60.4048 155.801 60.9243C155.977 61.4439 156.066 62.0892 156.066 62.8518C156.066 63.5222 155.982 64.1004 155.813 64.5865C155.611 65.1815 155.317 65.6592 154.938 66.0279C154.652 66.3086 154.265 66.5223 153.782 66.6774C153.42 66.7947 152.932 66.8492 152.322 66.8492H149.222V58.6994H149.227ZM150.884 60.0779V65.4706H152.112C152.57 65.4706 152.903 65.4455 153.105 65.391C153.374 65.324 153.593 65.2108 153.769 65.0516C153.946 64.8924 154.089 64.6326 154.198 64.2681C154.312 63.9035 154.366 63.4049 154.366 62.7764C154.366 62.1479 154.312 61.666 154.198 61.3266C154.089 60.9872 153.933 60.7274 153.731 60.5388C153.529 60.3503 153.277 60.2204 152.97 60.1575C152.743 60.1073 152.289 60.0779 151.62 60.0779H150.88H150.884ZM165.883 63.8448L167.481 64.3351C167.237 65.2318 166.825 65.898 166.253 66.3338C165.681 66.7695 164.957 66.9874 164.078 66.9874C162.993 66.9874 162.097 66.6187 161.399 65.8771C160.701 65.1354 160.352 64.1256 160.352 62.8434C160.352 61.4858 160.705 60.4341 161.407 59.6799C162.11 58.9298 163.035 58.5527 164.183 58.5527C165.184 58.5527 165.996 58.8502 166.623 59.4368C166.997 59.7846 167.275 60.2874 167.46 60.9411L165.828 61.3266C165.731 60.9034 165.529 60.5724 165.222 60.3251C164.915 60.0821 164.541 59.9606 164.103 59.9606C163.498 59.9606 163.001 60.1785 162.627 60.6101C162.249 61.0417 162.059 61.7456 162.059 62.7135C162.059 63.7401 162.244 64.4776 162.619 64.9133C162.993 65.3533 163.477 65.5712 164.07 65.5712C164.511 65.5712 164.89 65.4329 165.205 65.1522C165.521 64.8714 165.748 64.4357 165.887 63.8407L165.883 63.8448ZM176.267 66.8492H174.484L173.777 64.9929H170.497L169.815 66.8492H168.066L171.241 58.6994H172.991L176.267 66.8492ZM173.239 63.6186L172.103 60.6017L170.997 63.6186H173.239ZM177.146 66.8492V58.6994H180.625C181.5 58.6994 182.135 58.7748 182.53 58.9215C182.93 59.0681 183.245 59.3279 183.481 59.7008C183.72 60.0779 183.838 60.5053 183.838 60.983C183.838 61.5947 183.657 62.1018 183.3 62.4998C182.938 62.8979 182.404 63.1493 181.689 63.254C182.046 63.4594 182.337 63.6898 182.568 63.937C182.799 64.1842 183.111 64.6284 183.506 65.2611L184.503 66.8492H182.53L181.344 65.0684C180.919 64.4357 180.629 64.0376 180.469 63.8742C180.314 63.7108 180.15 63.5976 179.973 63.5348C179.796 63.4719 179.519 63.4426 179.136 63.4426H178.799V66.845H177.142L177.146 66.8492ZM178.804 62.1479H180.028C180.818 62.1479 181.315 62.1143 181.512 62.0473C181.71 61.9802 181.866 61.8671 181.975 61.7037C182.088 61.5403 182.143 61.335 182.143 61.0919C182.143 60.8154 182.067 60.5975 181.924 60.4257C181.777 60.2581 181.571 60.1492 181.302 60.1073C181.167 60.0863 180.764 60.0779 180.095 60.0779H178.808V62.1479H178.804ZM185.399 66.8492V58.6994H188.048C189.054 58.6994 189.706 58.7371 190.008 58.8209C190.475 58.9424 190.871 59.2106 191.186 59.6212C191.502 60.0318 191.661 60.5598 191.661 61.2093C191.661 61.7121 191.569 62.1311 191.388 62.4705C191.207 62.8099 190.976 63.0781 190.694 63.275C190.412 63.4677 190.13 63.5976 189.84 63.6605C189.445 63.7401 188.877 63.7778 188.128 63.7778H187.056V66.8492H185.399ZM187.056 60.0779V62.3993H187.956C188.604 62.3993 189.037 62.3574 189.256 62.2694C189.474 62.1856 189.647 62.0515 189.769 61.8671C189.891 61.6869 189.954 61.4732 189.954 61.2302C189.954 60.9327 189.865 60.6897 189.693 60.4927C189.516 60.3 189.298 60.1785 189.028 60.1282C188.831 60.0905 188.44 60.0737 187.842 60.0737H187.047L187.056 60.0779ZM193.02 66.8492V58.6994H199.077V60.0779H194.677V61.8881H198.765V63.2666H194.677V65.4748H199.237V66.8534H193.02V66.8492ZM202.479 66.8492V60.0779H200.057V58.6994H206.547V60.0779H204.137V66.8492H202.479ZM207.186 64.2094L208.797 64.0502C208.894 64.5865 209.087 64.9804 209.382 65.2318C209.676 65.4832 210.076 65.6089 210.576 65.6089C211.106 65.6089 211.506 65.4958 211.775 65.2737C212.044 65.0516 212.179 64.7876 212.179 64.4901C212.179 64.2974 212.12 64.134 212.01 63.9957C211.897 63.8616 211.699 63.7443 211.417 63.6437C211.224 63.5767 210.786 63.4594 210.101 63.2876C209.217 63.0697 208.599 62.7973 208.246 62.4789C207.745 62.0305 207.497 61.4816 207.497 60.8321C207.497 60.4173 207.615 60.0276 207.851 59.6631C208.086 59.3028 208.427 59.0262 208.868 58.8377C209.31 58.6491 209.844 58.5527 210.475 58.5527C211.497 58.5527 212.267 58.779 212.784 59.2315C213.302 59.6841 213.571 60.2874 213.6 61.0458L211.943 61.1045C211.872 60.6855 211.72 60.3838 211.493 60.1994C211.262 60.0151 210.917 59.9229 210.454 59.9229C209.991 59.9229 209.604 60.0235 209.335 60.2204C209.163 60.3461 209.074 60.5179 209.074 60.7274C209.074 60.9201 209.154 61.0877 209.318 61.2218C209.525 61.3978 210.029 61.5822 210.833 61.7707C211.636 61.9593 212.225 62.1562 212.608 62.3574C212.99 62.5585 213.293 62.835 213.512 63.187C213.731 63.539 213.836 63.9705 213.836 64.4859C213.836 64.951 213.705 65.391 213.445 65.7974C213.184 66.2039 212.818 66.5098 212.338 66.7067C211.863 66.9078 211.27 67.0042 210.559 67.0042C209.525 67.0042 208.73 66.7654 208.179 66.2919C207.623 65.8184 207.295 65.127 207.186 64.2178V64.2094ZM60.315 29.1884L74.5357 15.0216V43.351L60.315 29.1842V29.1884ZM45.2363 44.2099L59.457 30.0432L73.6776 44.2099L59.457 58.3767L45.2363 44.2099ZM45.2363 14.1668L59.457 0L73.6776 14.1668L59.457 28.3336L45.2363 14.1668Z" fill="white"/>
  </g>
  <defs>
    <clipPath id="clip0_1163_2452">
      <rect width="214.609" height="67" fill="white"/>
    </clipPath>
  </defs>
</svg>