<svg width="208" height="67" viewBox="0 0 208 67" fill="none" xmlns="http://www.w3.org/2000/svg">
<g id="logo/ Uzum" clip-path="url(#clip0_668_477)">
<path id="Vector" d="M33.5538 67C52.0856 67 67.1076 52.0021 67.1076 33.5C67.1076 14.9979 52.0856 0 33.5538 0C15.022 0 0 14.9979 0 33.5C0 52.0021 15.022 67 33.5538 67Z" fill="#0C1621"/>
<path id="Vector_2" d="M27.7978 7.18745C30.9245 4.06577 35.9712 4.06577 39.0979 7.18745L42.7505 10.8341H48.0581C52.4729 10.8341 56.048 14.4035 56.048 18.8113V24.1104L59.7006 27.7571C62.8273 30.8788 62.8273 35.9174 59.7006 39.0391L56.048 42.6858V48.0134C56.048 52.4212 52.4729 55.9906 48.0581 55.9906H42.726L39.0979 59.6129C35.9712 62.7345 30.9245 62.7345 27.7978 59.6129L24.1697 55.9906H18.8376C14.4228 55.9906 10.8477 52.4212 10.8477 48.0134V42.6858L7.19511 39.0432C4.06843 35.9215 4.06843 30.8829 7.19511 27.7612L10.8273 24.1348V18.8154C10.8232 14.4076 14.3942 10.8382 18.8091 10.8382H24.1453L27.7978 7.19152V7.18745Z" fill="white"/>
<path id="Vector_3" d="M36.0486 30.1422H30.529V17.2363C31.1078 17.0531 34.9438 17.0531 36.0486 17.2119V30.1463V30.1422ZM42.8278 23.1907C43.8265 23.4023 44.8253 23.6099 45.771 23.8459C46.7943 24.1064 47.793 24.4239 48.8203 24.7128C48.9507 24.7657 49.0282 24.8187 49.0282 24.9733C49.0282 28.1194 49.0526 31.2696 49.0037 34.4442C48.9507 37.8304 47.8745 40.8991 45.824 43.6016C43.5371 46.593 40.5164 48.5344 36.8394 49.4257C35.3922 49.7676 33.9247 49.8979 32.4245 49.792C28.878 49.5804 25.7513 48.3472 23.0689 46.0395C20.3091 43.6789 18.5766 40.6875 17.8673 37.0937C17.6553 36.0721 17.5779 35.0465 17.5779 34.0005V25.0547C17.5779 24.8431 17.6309 24.7942 17.8143 24.7373C19.7344 24.1349 21.7033 23.6343 23.7008 23.268H23.7783V23.504C23.7783 27.2566 23.7497 31.005 23.7783 34.7331C23.8027 36.6216 24.0392 38.4856 24.6995 40.2683C25.1969 41.6846 25.9592 42.9463 27.0925 43.9923C28.1442 44.961 29.3794 45.5674 30.7695 45.8564C32.7384 46.2756 34.6829 46.2512 36.603 45.6447C38.8614 44.9366 40.439 43.4144 41.4622 41.2899C42.0125 40.1625 42.3305 38.9537 42.5384 37.7205C42.7748 36.357 42.8278 34.9651 42.8278 33.5772V23.1866V23.1907Z" fill="#0C1621"/>
<path id="Vector_4" d="M145.042 20.9074C145.042 23.8703 143.359 25.2378 140.864 25.2378C138.369 25.2378 136.767 23.8988 136.767 20.9074V11.1475H131.382V21.1149C131.382 27.5943 136.82 30.1381 140.892 30.1381C144.965 30.1381 150.431 27.5943 150.431 21.1149V11.1475H145.046V20.9074H145.042ZM100.034 20.9074C100.034 23.8703 98.35 25.2378 95.8796 25.2378C93.4092 25.2378 91.7542 23.8988 91.7542 20.9074V11.1475H86.3936V21.1149C86.3936 27.5943 91.8072 30.1381 95.9041 30.1381C100.001 30.1381 105.419 27.5943 105.419 21.1149V11.1475H100.034V20.9074ZM177.336 10.7812C173.92 10.7812 171.344 12.1732 170.084 14.2692C168.796 12.1691 165.987 10.7812 163.069 10.7812C157.313 10.7812 154.316 14.428 154.316 18.9416V29.7758H159.701V19.7271C159.701 17.5781 160.831 15.6612 163.46 15.6612C163.986 15.6367 164.536 15.7141 165.009 15.8972C165.506 16.0804 165.955 16.3693 166.35 16.7641C166.717 17.1304 167.007 17.6025 167.219 18.1031C167.402 18.6038 167.479 19.1247 167.455 19.6497V29.8043H172.84V19.6497C172.84 17.5008 174.128 15.6612 176.701 15.6612C179.273 15.6612 180.512 17.5781 180.512 19.7271V29.8003H185.897V18.966C185.897 14.4524 183.113 10.8057 177.332 10.7812H177.336ZM126.837 15.6896V11.1516H109.365V15.6896H119.691L108.945 25.2378V29.7758H127.469V25.2378H116.091L126.837 15.6896Z" fill="#0C1621"/>
<path id="Vector_5" d="M151.084 46.4871C151.084 42.5514 148.14 40.5856 142.254 40.5856C138.206 40.5856 133.477 41.6886 133.477 46.015C133.477 48.2982 134.843 50.1053 136.869 50.7361C138.944 51.3914 141.047 51.6804 143.175 51.8635C144.357 51.9693 146.591 52.3112 146.591 53.6218C146.567 54.8265 145.197 55.4329 142.494 55.4329C139.792 55.4329 138.475 54.802 138.475 53.1741V52.6246H133.143V53.1741C133.143 57.24 136.241 59.2627 142.499 59.2627C148.776 59.2872 151.932 57.3458 151.932 53.5444C151.932 50.6588 149.881 48.9006 147.309 48.3756C144.838 47.8749 142.238 47.7976 140.187 47.2726C139.294 47.0365 138.822 46.5359 138.822 46.0109C138.822 44.9079 139.926 44.3585 142.16 44.3585C144.394 44.3585 145.788 44.6759 145.788 46.4301L151.096 46.483L151.084 46.4871ZM205.709 52.5717V40.9234H200.585L200.613 43.7561C199.484 42.1037 197.54 40.5815 194.046 40.5815C188.054 40.5815 185.008 45.2254 185.008 49.8937C184.902 54.6148 188.372 59.3116 193.81 59.3116C196.7 59.3116 199.329 58.0255 200.589 55.7707C201.09 57.24 202.374 58.8924 205.057 58.8924H208V54.5375H207.16C206.137 54.5131 205.713 54.1183 205.713 52.5717H205.709ZM195.147 54.7736C192.203 54.7736 189.998 52.7549 189.998 49.8937C189.998 47.0325 192.208 45.0952 195.147 45.0952C198.086 45.0952 200.377 47.0609 200.377 49.8937C200.377 52.7264 198.172 54.7736 195.147 54.7736ZM179.538 40.9234L174.703 53.6218L168.923 40.9234H162.93L172.102 59.7064C171.234 61.8309 170.525 62.4618 168.792 62.4618H166.114V66.9754H169.241C173.105 66.9754 175.204 64.8508 177.332 59.7349L185.139 40.9519L179.542 40.9275L179.538 40.9234ZM160.227 40.9234H155.05V58.868H160.227V40.9234ZM128.41 52.5717V40.9234H123.286L123.31 43.7561C122.206 42.1037 120.237 40.5815 116.768 40.5815C110.779 40.5815 107.706 45.2254 107.706 49.8937C107.6 54.6148 111.069 59.3116 116.507 59.3116C119.368 59.3116 121.998 58.0255 123.257 55.7707C123.783 57.24 125.043 58.8924 127.725 58.8924H130.669V54.5375H129.829C128.883 54.5131 128.41 54.1183 128.41 52.5717ZM117.872 54.7736C114.929 54.7736 112.724 52.7549 112.724 49.8937C112.724 47.0325 114.933 45.0952 117.872 45.0952C120.812 45.0952 123.103 47.0609 123.103 49.8937C123.103 52.7264 120.922 54.7736 117.872 54.7736ZM99.5036 49.45C99.5036 46.6173 97.873 45.3068 95.5086 45.3068C93.1442 45.3068 91.5422 46.6173 91.5422 49.45V58.868H86.365V49.2913C86.365 43.048 91.5911 40.5815 95.5086 40.5815C99.4261 40.5815 104.652 43.0195 104.652 49.2913V58.868H99.4751L99.4995 49.45H99.5036Z" fill="#0C1621"/>
</g>
<defs>
<clipPath id="clip0_668_477">
<rect width="208" height="67" fill="white"/>
</clipPath>
</defs>
</svg>
