<svg width="13" height="26" viewBox="0 0 13 26" fill="none" xmlns="http://www.w3.org/2000/svg">
<path d="M9.20775 13.462L7.93339 18.6978C7.93339 18.6978 4.45129 18.6483 0 25.9999C0 25.9999 0.522863 17.6356 9.20874 13.462H9.20775Z" fill="#0C1621"/>
<path d="M3.00392 15.8625L3.75641 11.1483C3.75641 11.1483 10.0874 10.7819 11.3608 2.95154C11.3608 2.95154 12.9333 10.7134 3.00293 15.8635L3.00392 15.8625Z" fill="#0C1621"/>
<path d="M5.92115 8.3529C7.18712 8.3529 8.2134 7.37025 8.2134 6.15808C8.2134 4.94591 7.18712 3.96326 5.92115 3.96326C4.65518 3.96326 3.62891 4.94591 3.62891 6.15808C3.62891 7.37025 4.65518 8.3529 5.92115 8.3529Z" fill="#DFAE02"/>
<path d="M11.285 0L11.6896 1.19259H12.9997L11.9401 1.93023L12.3447 3.12282L11.285 2.38613L10.2254 3.12282L10.63 1.93023L9.57031 1.19259H10.8805L11.285 0Z" fill="#DFAE02"/>
</svg>
